<svg xmlns="http://www.w3.org/2000/svg" viewBox="0 0 128 128"><title>logo</title><rect x="6.5" y="6.5" width="115" height="115" rx="15.1" fill="#fff" stroke="#999" stroke-miterlimit="10" stroke-width="2"></rect><path d="M21.8 56.6V28.2c0-1.5.1-2.9.2-4.3.6-5.3 3.7-8.8 8.9-8.9 13.4-.1 26.9-.5 40.2.4 17.5 1.3 28.1 12.1 33.2 28.2a70.8 70.8 0 01-.1 42.5c-5.1 17.1-17.6 27.1-36.1 28.2-12.1.7-24.3.3-36.4.1-5.9-.1-8.6-2.9-9.6-8.7-.2-1.5-.3-3.1-.4-4.6s.8-2.4 2.4-2.5 4.5.1 6.7 0c10.8-.1 21.6-.1 32.4-.3s16.9-5.4 20.3-14.7a56.5 56.5 0 00.6-37c-3.2-10.4-11.2-14.9-21.6-15.4-6.5-.3-12.9-.3-19.4-.3-.3 0-.9.9-.9 1.3 0 18.1 0 36.1.1 54.1 0 4.2-1.4 5.6-5.6 5.6H26.6c-3.3 0-4.9-1.6-4.9-4.9V56.6z"></path><path d="M55 50.1c.9 0 5.9.1 7.7 2.1s1.5 6.8 1.5 6.8h3.7a11 11 0 00-2.8-8.9C61.8 46.6 55 47 55 47z" fill="#C1272D" stroke="#C1272D" stroke-linejoin="round" stroke-width="2"></path><path d="M55 37s12-.9 17.9 5.5S77.8 59 77.8 59h-3.6s1-8.2-3.6-12.8c-6.4-6.4-14-5.5-15.6-5.5z" fill="#C1272D" stroke="#C1272D" stroke-linejoin="round" stroke-width="2"></path></svg>